<?xml version="1.0" encoding="utf-8"?>
<!-- Generator: Adobe Illustrator 23.0.3, SVG Export Plug-In . SVG Version: 6.00 Build 0)  -->
<svg version="1.0" id="Layer_1" xmlns="http://www.w3.org/2000/svg" xmlns:xlink="http://www.w3.org/1999/xlink" x="0px" y="0px"
	 viewBox="0 0 20 20" style="enable-background:new 0 0 20 20;" xml:space="preserve">
<style type="text/css">
	.st0{fill:#FFFFFF;}
	.st1{fill:none;}
</style>
<g>
	<path class="st0" d="M13.7,10.58c0,0.56-0.12,1.11-0.33,1.6c1.4,0.83,2.46,2.15,3.04,3.7H20c0-3.01-1.98-5.52-4.62-6.12
		c0.85-0.47,1.44-1.42,1.44-2.52c0-1.57-1.19-2.85-2.66-2.85c-1.41,0-2.56,1.19-2.64,2.69C12.8,7.69,13.7,9.03,13.7,10.58z"/>
	<path class="st0" d="M6.63,12.19c-0.22-0.5-0.33-1.04-0.33-1.6c0-1.55,0.89-2.89,2.17-3.5c-0.1-1.48-1.24-2.64-2.64-2.64
		c-1.47,0-2.66,1.28-2.66,2.85c0,1.1,0.59,2.04,1.44,2.52C1.98,10.41,0,12.93,0,15.94h3.58C4.15,14.36,5.22,13.02,6.63,12.19z"/>
	<path class="st0" d="M15.28,15.89c-0.67-1.54-1.89-2.74-3.4-3.3c0.48-0.52,0.77-1.23,0.77-2.01c0-0.24-0.04-0.47-0.09-0.69
		c-0.05-0.19-0.11-0.38-0.19-0.55c-0.14-0.31-0.33-0.59-0.56-0.82C11.34,8.03,10.7,7.73,10,7.73c-0.69,0-1.31,0.29-1.78,0.75
		C7.95,8.74,7.73,9.06,7.58,9.41C7.52,9.58,7.46,9.75,7.42,9.93c-0.05,0.21-0.08,0.43-0.08,0.65c0,0.79,0.3,1.5,0.78,2.01
		c-1.53,0.56-2.76,1.78-3.42,3.34c-0.33,0.79-0.53,1.66-0.53,2.58h11.67C15.83,17.58,15.63,16.69,15.28,15.89z"/>
</g>
</svg>
