<?xml version="1.0" encoding="utf-8"?>
<!-- Generator: Adobe Illustrator 23.0.3, SVG Export Plug-In . SVG Version: 6.00 Build 0)  -->
<svg version="1.1" id="Layer_1" xmlns="http://www.w3.org/2000/svg" xmlns:xlink="http://www.w3.org/1999/xlink" x="0px" y="0px"
	 viewBox="0 0 20 20" style="enable-background:new 0 0 20 20;" xml:space="preserve">
<style type="text/css">
	.st0{fill:#FFFFFF;}
	.st1{fill:#89CAB6;}
	.st2{fill:none;}
</style>
<g>
	<path class="st1" d="M13.7,9.1c0,0.6-0.1,1.1-0.3,1.6c1.4,0.8,2.5,2.1,3,3.7H20c0-3-2-5.5-4.6-6.1c0.8-0.5,1.4-1.4,1.4-2.5
		c0-1.6-1.2-2.8-2.7-2.8c-1.4,0-2.6,1.2-2.6,2.7C12.8,6.2,13.7,7.6,13.7,9.1z"/>
	<path class="st1" d="M6.6,10.7c-0.2-0.5-0.3-1-0.3-1.6c0-1.5,0.9-2.9,2.2-3.5C8.4,4.2,7.2,3,5.8,3C4.4,3,3.2,4.3,3.2,5.8
		c0,1.1,0.6,2,1.4,2.5C2,9,0,11.5,0,14.5h3.6C4.2,12.9,5.2,11.6,6.6,10.7z"/>
	<path class="st1" d="M15.3,14.4c-0.7-1.5-1.9-2.7-3.4-3.3c0.5-0.5,0.8-1.2,0.8-2c0-0.2,0-0.5-0.1-0.7c-0.1-0.2-0.1-0.4-0.2-0.6
		c-0.1-0.3-0.3-0.6-0.6-0.8c-0.5-0.5-1.1-0.8-1.8-0.8C9.3,6.3,8.7,6.6,8.2,7C8,7.3,7.7,7.6,7.6,8C7.5,8.1,7.5,8.3,7.4,8.5
		C7.4,8.7,7.3,8.9,7.3,9.1c0,0.8,0.3,1.5,0.8,2c-1.5,0.6-2.8,1.8-3.4,3.3c-0.3,0.8-0.5,1.7-0.5,2.6h11.7
		C15.8,16.1,15.6,15.2,15.3,14.4z"/>
</g>
</svg>
