<?xml version="1.0" encoding="utf-8"?>
<!-- Generator: Adobe Illustrator 23.0.3, SVG Export Plug-In . SVG Version: 6.00 Build 0)  -->
<svg version="1.0" id="Layer_1" xmlns="http://www.w3.org/2000/svg" xmlns:xlink="http://www.w3.org/1999/xlink" x="0px" y="0px"
	 viewBox="0 0 20 20" style="enable-background:new 0 0 20 20;" xml:space="preserve">
<style type="text/css">
	.st0{fill:#FFFFFF;}
	.st1{fill:#89CAB6;}
	.st2{fill:none;}
</style>
<path class="st0" d="M50.36,4.9l-7.55-5.78c-0.28-0.21-0.67-0.21-0.94,0l-7.49,5.73C34.19,5,34.07,5.23,34.07,5.47L34.06,16.4
	c0,0.43,0.35,0.78,0.78,0.78h5.62v-4.7c0-0.4,0.32-0.72,0.72-0.72h2.29c0.4,0,0.72,0.32,0.72,0.72v4.7h5.62
	c0.43,0,0.78-0.35,0.78-0.78V5.38C50.6,5.19,50.51,5.02,50.36,4.9z"/>
<path class="st1" d="M75.6,35.81l-7.55-5.78c-0.28-0.21-0.67-0.21-0.94,0l-7.49,5.73c-0.19,0.15-0.31,0.38-0.31,0.62L59.3,47.31
	c0,0.43,0.35,0.78,0.78,0.78h5.62v-4.7c0-0.4,0.32-0.72,0.72-0.72h2.29c0.4,0,0.72,0.32,0.72,0.72v4.7h5.62
	c0.43,0,0.78-0.35,0.78-0.78V36.29C75.83,36.1,75.75,35.93,75.6,35.81z"/>
<g>
	<path class="st2" d="M9.4,12.35l4.55-3.46c0.26-0.2,0.31-0.57,0.11-0.83c-0.2-0.26-0.57-0.31-0.83-0.11l-3.74,2.85L8.23,9.57
		C7.99,9.34,7.62,9.35,7.39,9.58c-0.23,0.24-0.22,0.61,0.01,0.84L9.4,12.35z"/>
	<path class="st0" d="M3.87,15.47h13.25V4.07H3.87V15.47z M7.39,9.58c0.23-0.23,0.6-0.24,0.84-0.01l1.27,1.22l3.74-2.85
		c0.26-0.2,0.63-0.15,0.83,0.11c0.2,0.26,0.15,0.63-0.11,0.83L9.4,12.35l-2-1.93C7.17,10.19,7.16,9.82,7.39,9.58z"/>
	<path class="st0" d="M3.87,18.3c0,0.88,0.67,1.59,1.49,1.59h10.27c0.82,0,1.49-0.71,1.49-1.59v-1.26H3.87V18.3z M10.5,17.49
		c0.54,0,0.98,0.44,0.98,0.98s-0.44,0.98-0.98,0.98c-0.54,0-0.98-0.44-0.98-0.98S9.96,17.49,10.5,17.49z"/>
	<path class="st0" d="M15.63,0.1H5.37c-0.82,0-1.49,0.71-1.49,1.59v0.85h13.25V1.7C17.13,0.82,16.46,0.1,15.63,0.1z"/>
</g>
<g>
	<rect x="142.45" y="29.88" class="st0" width="7.56" height="2.02"/>
	<path class="st0" d="M135.66,27.06c0,0.59,0.48,1.07,1.07,1.07h17.86c0.59,0,1.07-0.48,1.07-1.07v-8.03h-20V27.06z M147.76,23.71
		l1.85-0.64l-1.85-0.68v-1.18l3.25,1.26v1.09l-3.25,1.26V23.71z M145.78,20.65h1.13l-1.67,4.24h-1.13L145.78,20.65z M140.13,22.47
		l3.25-1.26v1.13l-1.85,0.64l1.85,0.68v1.17l-3.25-1.26V22.47z"/>
	<path class="st0" d="M155.66,17.31c0-0.59-0.48-1.07-1.07-1.07h-17.86c-0.59,0-1.07,0.48-1.07,1.07v0.2h20V17.31z"/>
</g>
<g>
	<path class="st0" d="M73.7,8.1c0,0.56-0.12,1.11-0.33,1.6c1.4,0.83,2.46,2.15,3.04,3.7H80c0-3.01-1.98-5.52-4.62-6.12
		c0.85-0.47,1.44-1.42,1.44-2.52c0-1.57-1.19-2.85-2.66-2.85c-1.41,0-2.56,1.19-2.64,2.69C72.8,5.21,73.7,6.55,73.7,8.1z"/>
	<path class="st0" d="M66.63,9.71c-0.22-0.5-0.33-1.04-0.33-1.6c0-1.55,0.89-2.89,2.17-3.5c-0.1-1.48-1.24-2.64-2.64-2.64
		c-1.47,0-2.66,1.28-2.66,2.85c0,1.1,0.59,2.04,1.44,2.52C61.98,7.93,60,10.45,60,13.46h3.58C64.15,11.88,65.22,10.54,66.63,9.71z"
		/>
	<path class="st0" d="M75.28,13.41c-0.67-1.54-1.89-2.74-3.4-3.3c0.48-0.52,0.77-1.23,0.77-2.01c0-0.24-0.04-0.47-0.09-0.69
		c-0.05-0.19-0.11-0.38-0.19-0.55c-0.14-0.31-0.33-0.59-0.56-0.82C71.34,5.55,70.7,5.25,70,5.25c-0.69,0-1.31,0.29-1.78,0.75
		c-0.27,0.26-0.48,0.57-0.63,0.93c-0.07,0.17-0.12,0.34-0.16,0.52c-0.05,0.21-0.08,0.43-0.08,0.65c0,0.79,0.3,1.5,0.78,2.01
		c-1.53,0.56-2.76,1.78-3.42,3.34c-0.33,0.79-0.53,1.66-0.53,2.58h11.67C75.83,15.1,75.63,14.21,75.28,13.41z"/>
</g>
<g>
	<path class="st0" d="M-16.02,4.75c-0.16-0.09-0.34-0.16-0.54-0.16h-17.72c-0.2,0-0.38,0.07-0.54,0.16l9.4,9.4L-16.02,4.75z"/>
	<path class="st0" d="M-25.43,15.57L-35.4,5.6c-0.01,0.05-0.03,0.09-0.03,0.14v9.81c0,0.63,0.51,1.14,1.14,1.14h17.72
		c0.63,0,1.14-0.51,1.14-1.14V5.74c0-0.05-0.02-0.09-0.03-0.14L-25.43,15.57z"/>
</g>
</svg>
