<?xml version="1.0" encoding="utf-8"?>
<!-- Generator: Adobe Illustrator 23.0.3, SVG Export Plug-In . SVG Version: 6.00 Build 0)  -->
<svg version="1.1" id="Layer_1" xmlns="http://www.w3.org/2000/svg" xmlns:xlink="http://www.w3.org/1999/xlink" x="0px" y="0px"
	 viewBox="0 0 20 20" style="enable-background:new 0 0 20 20;" xml:space="preserve">
<style type="text/css">
	.st0{fill:#FFFFFF;}
	.st1{fill:#89CAB6;}
	.st2{fill:none;}
</style>
<path class="st0" d="M18,37.2l-7.5-5.8c-0.3-0.2-0.7-0.2-0.9,0l-7.5,5.7c-0.2,0.2-0.3,0.4-0.3,0.6l0,10.9c0,0.4,0.3,0.8,0.8,0.8h5.6
	v-4.7c0-0.4,0.3-0.7,0.7-0.7h2.3c0.4,0,0.7,0.3,0.7,0.7v4.7h5.6c0.4,0,0.8-0.4,0.8-0.8v-11C18.3,37.5,18.2,37.3,18,37.2z"/>
<path class="st1" d="M75.6,35.8L68,30c-0.3-0.2-0.7-0.2-0.9,0l-7.5,5.7c-0.2,0.2-0.3,0.4-0.3,0.6l0,10.9c0,0.4,0.3,0.8,0.8,0.8h5.6
	v-4.7c0-0.4,0.3-0.7,0.7-0.7h2.3c0.4,0,0.7,0.3,0.7,0.7v4.7h5.6c0.4,0,0.8-0.3,0.8-0.8v-11C75.8,36.1,75.8,35.9,75.6,35.8z"/>
<g>
	<path class="st2" d="M8.9,12.4l4.6-3.5c0.3-0.2,0.3-0.6,0.1-0.8C13.4,7.8,13,7.8,12.7,8L9,10.8L7.7,9.6c-0.2-0.2-0.6-0.2-0.8,0
		c-0.2,0.2-0.2,0.6,0,0.8L8.9,12.4z"/>
	<path class="st0" d="M3.4,15.5h13.2V4.1H3.4V15.5z M6.9,9.6c0.2-0.2,0.6-0.2,0.8,0L9,10.8l3.7-2.8c0.3-0.2,0.6-0.2,0.8,0.1
		c0.2,0.3,0.1,0.6-0.1,0.8l-4.6,3.5l-2-1.9C6.7,10.2,6.7,9.8,6.9,9.6z"/>
	<path class="st0" d="M3.4,18.3c0,0.9,0.7,1.6,1.5,1.6h10.3c0.8,0,1.5-0.7,1.5-1.6V17H3.4V18.3z M10,17.5c0.5,0,1,0.4,1,1
		s-0.4,1-1,1c-0.5,0-1-0.4-1-1S9.5,17.5,10,17.5z"/>
	<path class="st0" d="M15.1,0.1H4.9c-0.8,0-1.5,0.7-1.5,1.6v0.8h13.2V1.7C16.6,0.8,16,0.1,15.1,0.1z"/>
</g>
<g>
	<path class="st1" d="M42.2,45.4h13.3V34H42.2V45.4z M45.7,39.5c0.2-0.2,0.6-0.2,0.8,0l1.3,1.2l3.7-2.8c0.3-0.2,0.6-0.2,0.8,0.1
		c0.2,0.3,0.1,0.6-0.1,0.8l-4.6,3.5l-2-1.9C45.5,40.1,45.5,39.7,45.7,39.5z"/>
	<path class="st1" d="M42.2,48.2c0,0.9,0.7,1.6,1.5,1.6h10.3c0.8,0,1.5-0.7,1.5-1.6V47H42.2V48.2z M48.8,47.4c0.5,0,1,0.4,1,1
		c0,0.5-0.4,1-1,1s-1-0.4-1-1C47.8,47.9,48.3,47.4,48.8,47.4z"/>
	<path class="st1" d="M53.9,30H43.7c-0.8,0-1.5,0.7-1.5,1.6v0.9h13.3v-0.8C55.4,30.7,54.8,30,53.9,30z"/>
</g>
<g>
	<rect x="-63.4" y="47.6" class="st0" width="7.6" height="2"/>
	<path class="st0" d="M-70.2,44.8c0,0.6,0.5,1.1,1.1,1.1h17.9c0.6,0,1.1-0.5,1.1-1.1v-8h-20L-70.2,44.8L-70.2,44.8z M-58.1,41.4
		l1.9-0.6l-1.9-0.7v-1.2l3.3,1.3v1.1l-3.3,1.3V41.4z M-60.1,38.4h1.1l-1.7,4.2h-1.1L-60.1,38.4z M-65.8,40.2l3.3-1.3V40l-1.9,0.6
		l1.9,0.7v1.2l-3.3-1.3V40.2z"/>
	<path class="st0" d="M-50.2,35c0-0.6-0.5-1.1-1.1-1.1h-17.9c-0.6,0-1.1,0.5-1.1,1.1v0.2h20L-50.2,35L-50.2,35z"/>
</g>
<g>
	<rect x="109" y="46.5" class="st1" width="7.6" height="2"/>
	<path class="st1" d="M102.3,43.6c0,0.6,0.5,1.1,1.1,1.1h17.9c0.6,0,1.1-0.5,1.1-1.1v-8h-20L102.3,43.6L102.3,43.6z M114.3,40.3
		l1.9-0.6l-1.9-0.7v-1.2l3.3,1.3v1.1l-3.3,1.3V40.3z M112.4,37.2h1.1l-1.7,4.2h-1.1L112.4,37.2z M106.7,39.1l3.3-1.3v1.1l-1.9,0.6
		l1.9,0.7v1.2l-3.3-1.3V39.1z"/>
	<path class="st1" d="M122.3,33.9c0-0.6-0.5-1.1-1.1-1.1h-17.9c-0.6,0-1.1,0.5-1.1,1.1v0.2h20L122.3,33.9L122.3,33.9z"/>
</g>
<g>
	<path class="st0" d="M-25.6,38.1c0,0.6-0.1,1.1-0.3,1.6c1.4,0.8,2.5,2.1,3,3.7h3.6c0-3-2-5.5-4.6-6.1c0.8-0.5,1.4-1.4,1.4-2.5
		c0-1.6-1.2-2.8-2.7-2.8c-1.4,0-2.6,1.2-2.6,2.7C-26.5,35.2-25.6,36.6-25.6,38.1z"/>
	<path class="st0" d="M-32.7,39.7c-0.2-0.5-0.3-1-0.3-1.6c0-1.5,0.9-2.9,2.2-3.5c-0.1-1.5-1.2-2.6-2.6-2.6c-1.5,0-2.7,1.3-2.7,2.9
		c0,1.1,0.6,2,1.4,2.5c-2.6,0.6-4.6,3.1-4.6,6.1h3.6C-35.2,41.9-34.1,40.6-32.7,39.7z"/>
	<path class="st0" d="M-24.1,43.4c-0.7-1.5-1.9-2.7-3.4-3.3c0.5-0.5,0.8-1.2,0.8-2c0-0.2,0-0.5-0.1-0.7c-0.1-0.2-0.1-0.4-0.2-0.5
		c-0.1-0.3-0.3-0.6-0.6-0.8c-0.5-0.5-1.1-0.8-1.8-0.8c-0.7,0-1.3,0.3-1.8,0.8c-0.3,0.3-0.5,0.6-0.6,0.9c-0.1,0.2-0.1,0.3-0.2,0.5
		c-0.1,0.2-0.1,0.4-0.1,0.7c0,0.8,0.3,1.5,0.8,2c-1.5,0.6-2.8,1.8-3.4,3.3c-0.3,0.8-0.5,1.7-0.5,2.6h11.7
		C-23.5,45.1-23.7,44.2-24.1,43.4z"/>
</g>
<g>
	<path class="st1" d="M93.4,39c0,0.6-0.1,1.1-0.3,1.6c1.4,0.8,2.5,2.2,3,3.7h3.6c0-3-2-5.5-4.6-6.1c0.8-0.5,1.4-1.4,1.4-2.5
		c0-1.6-1.2-2.8-2.7-2.8c-1.4,0-2.6,1.2-2.6,2.7C92.5,36.1,93.4,37.4,93.4,39z"/>
	<path class="st1" d="M86.3,40.6c-0.2-0.5-0.3-1-0.3-1.6c0-1.5,0.9-2.9,2.2-3.5c-0.1-1.5-1.2-2.6-2.6-2.6c-1.5,0-2.7,1.3-2.7,2.8
		c0,1.1,0.6,2,1.4,2.5c-2.6,0.6-4.6,3.1-4.6,6.1h3.6C83.8,42.7,84.9,41.4,86.3,40.6z"/>
	<path class="st1" d="M95,44.3c-0.7-1.5-1.9-2.7-3.4-3.3c0.5-0.5,0.8-1.2,0.8-2c0-0.2,0-0.5-0.1-0.7c-0.1-0.2-0.1-0.4-0.2-0.5
		c-0.1-0.3-0.3-0.6-0.6-0.8c-0.5-0.5-1.1-0.8-1.8-0.8c-0.7,0-1.3,0.3-1.8,0.8c-0.3,0.3-0.5,0.6-0.6,0.9c-0.1,0.2-0.1,0.3-0.2,0.5
		C87.1,38.5,87,38.7,87,39c0,0.8,0.3,1.5,0.8,2c-1.5,0.6-2.8,1.8-3.4,3.3c-0.3,0.8-0.5,1.7-0.5,2.6h11.7C95.5,46,95.3,45.1,95,44.3z
		"/>
</g>
<g>
	<path class="st0" d="M-16,4.7c-0.2-0.1-0.3-0.2-0.5-0.2h-17.7c-0.2,0-0.4,0.1-0.5,0.2l9.4,9.4L-16,4.7z"/>
	<path class="st0" d="M-25.4,15.6l-10-10c0,0.1,0,0.1,0,0.1v9.8c0,0.6,0.5,1.1,1.1,1.1h17.7c0.6,0,1.1-0.5,1.1-1.1V5.7
		c0-0.1,0-0.1,0-0.1L-25.4,15.6z"/>
</g>
<g>
	<path class="st1" d="M101.7-8c-0.2-0.1-0.3-0.2-0.5-0.2H83.4c-0.2,0-0.4,0.1-0.5,0.2l9.4,9.4L101.7-8z"/>
	<path class="st1" d="M92.3,2.8l-10-10c0,0.1,0,0.1,0,0.1v9.8c0,0.6,0.5,1.1,1.1,1.1h17.7c0.6,0,1.1-0.5,1.1-1.1V-7
		c0-0.1,0-0.1,0-0.1L92.3,2.8z"/>
</g>
</svg>
