<?xml version="1.0" encoding="utf-8"?>
<!-- Generator: Adobe Illustrator 23.0.3, SVG Export Plug-In . SVG Version: 6.00 Build 0)  -->
<svg version="1.1" id="Layer_1" xmlns="http://www.w3.org/2000/svg" xmlns:xlink="http://www.w3.org/1999/xlink" x="0px" y="0px"
	 viewBox="0 0 20 20" style="enable-background:new 0 0 20 20;" xml:space="preserve">
<style type="text/css">
	.st0{fill:#FFFFFF;}
	.st1{fill:#89CAB6;}
	.st2{fill:none;}
</style>
<g>
	<path class="st1" d="M3.4,15.5h13.2V4.1H3.4V15.5z M6.9,9.6c0.2-0.2,0.6-0.2,0.8,0L9,10.8l3.7-2.8c0.3-0.2,0.6-0.2,0.8,0.1
		c0.2,0.3,0.1,0.6-0.1,0.8l-4.6,3.5l-2-1.9C6.7,10.2,6.7,9.8,6.9,9.6z"/>
	<path class="st1" d="M3.4,18.3c0,0.9,0.7,1.6,1.5,1.6h10.3c0.8,0,1.5-0.7,1.5-1.6V17H3.4V18.3z M10,17.5c0.5,0,1,0.4,1,1
		s-0.4,1-1,1c-0.5,0-1-0.4-1-1S9.5,17.5,10,17.5z"/>
	<path class="st1" d="M15.1,0.1H4.9c-0.8,0-1.5,0.7-1.5,1.6v0.8h13.2V1.7C16.6,0.8,16,0.1,15.1,0.1z"/>
</g>
</svg>
