<?xml version="1.0" encoding="utf-8"?>
<!-- Generator: Adobe Illustrator 23.0.3, SVG Export Plug-In . SVG Version: 6.00 Build 0)  -->
<svg version="1.0" id="Layer_1" xmlns="http://www.w3.org/2000/svg" xmlns:xlink="http://www.w3.org/1999/xlink" x="0px" y="0px"
	 viewBox="0 0 20 20" style="enable-background:new 0 0 20 20;" xml:space="preserve">
<style type="text/css">
	.st0{fill:#FFFFFF;}
	.st1{fill:none;stroke:#FFFFFF;stroke-miterlimit:10;}
	.st2{fill:none;}
</style>
<g>
	<rect x="6.79" y="17.98" class="st0" width="7.56" height="2.02"/>
	<path class="st0" d="M0,15.17c0,0.59,0.48,1.07,1.07,1.07h17.86c0.59,0,1.07-0.48,1.07-1.07V7.14H0V15.17z M12.1,11.81l1.85-0.64
		L12.1,10.5V9.32l3.25,1.26v1.09l-3.25,1.26V11.81z M10.12,8.76h1.13L9.58,13H8.45L10.12,8.76z M4.47,10.58l3.25-1.26v1.13
		l-1.85,0.64l1.85,0.68v1.17l-3.25-1.26V10.58z"/>
	<path class="st0" d="M20,5.42c0-0.59-0.48-1.07-1.07-1.07H1.07C0.48,4.35,0,4.83,0,5.42v0.2h20V5.42z"/>
</g>
</svg>
