<?xml version="1.0" encoding="utf-8"?>
<!-- Generator: Adobe Illustrator 23.0.3, SVG Export Plug-In . SVG Version: 6.00 Build 0)  -->
<svg version="1.1" id="Layer_1" xmlns="http://www.w3.org/2000/svg" xmlns:xlink="http://www.w3.org/1999/xlink" x="0px" y="0px"
	 viewBox="0 0 981 742" style="enable-background:new 0 0 981 742;" xml:space="preserve">
<style type="text/css">
	.st0{fill:#FFFFFF;}
</style>
<path class="st0" d="M682,743c-46.7,0-93.3,0-140,0c-4.3-0.3-8.6-0.5-12.9-1c-14.2-1.8-28.5-2.9-42.4-5.9
	c-25.1-5.4-47.7-17.4-70.2-29.4c-53.7-28.8-107.3-57.7-160.9-86.5c-4.9-2.6-10-5.1-15.4-7.8c-1.7,3.6-3.2,6.5-4.4,9.6
	c-5,13.7-10.3,27.4-14.8,41.3c-7.2,22.5-24.1,35.2-44.3,44.6c-1.1,0.5-2.6,0.6-3.9,0.7c-40.5,0.4-81,0.9-121.4,1.2
	c-1.5,0-3.4-0.4-4.5-1.3c-8.7-6.8-10.6-12.1-7.2-22.5c11.2-35,22.6-69.9,33.9-104.9c0.6-1.8,1.1-3.7,2.1-6.9
	c-14.3,0-27.6,0.1-40.9-0.1c-8.2-0.1-15.6-3-22.1-8.2C6.2,560.7,3.4,553.5,1,546c0-3.7,0-7.3,0-11c0.3-0.6,0.7-1.1,0.8-1.8
	c3.6-14.6,12.9-23.1,27.8-24.4c11.3-1,22.6-1.4,33.9-1.5c68-0.2,136-0.2,204-0.3c1.9,0,3.8,0,5.7,0c0-11.6,0-22.5,0-33.7
	c-2.3,0-4.1,0-5.9,0c-58.2,0-116.3,0-174.5,0.1c-4.3,0-6.4-1-7.8-5.3c-10.6-32.8-21.6-65.4-32.3-98.1c-5-15.3-9.8-30.8-14.4-46.2
	c-2.6-8.7,5.9-19.3,14.7-19.2c36.7,0.4,73.3,1,110,1c8.8,0,16.3,2.3,24.1,6.2c15.6,8,26.5,20,32.5,36.3c4.5,12.2,8.7,24.4,13.2,36.6
	c2.1,5.7,4.6,11.3,7.1,17.5c8.1-4.2,15.5-8,22.9-11.9c56.1-30,112.2-59.9,168.2-89.9c31.4-16.8,64.2-28.3,100.3-28.1
	c79.8,0.4,159.6,0.6,239.5,1.1c7.8,0,15.7,0.9,23.3,2.6c34.5,7.9,66.4,22,94.3,43.8c54.2,42.5,86.6,97.5,91.7,166.7
	c1.5,20.8-0.9,41.9-1.5,62.9c-18.2,79.2-61.9,138.3-136.3,173c-22.9,10.7-46.8,18.3-72.5,18.7c-19.8,0.4-39.7,0.8-59.5,1.2
	C700.9,742.4,691.5,742.7,682,743z M821.7,456.7c-25.4-0.2-50.1,24.4-50.4,50c-0.3,26.1,24.2,50.9,50.4,51.1
	c26,0.2,50.8-24.5,50.8-50.7C872.7,481,848.3,456.8,821.7,456.7z M467.7,456.7c-25.3-0.3-50.3,24.2-50.6,49.6
	c-0.3,26.4,24,51.3,50.4,51.5c25.8,0.2,50.4-24,50.7-50.1C518.5,481.3,494.5,457,467.7,456.7z M695.4,507.4
	c0.3-26.1-23.9-50.4-50.5-50.7c-25.4-0.3-50.3,24.1-50.7,49.7c-0.4,26.2,24.3,51.4,50.6,51.4C670.8,557.8,695.1,533.6,695.4,507.4z"
	/>
<path class="st0" d="M814,1c-0.1,2-0.4,4-0.4,5.9c0,40.8,0,81.7,0,122.5c0,2,0,3.9,0,6.5c-15.4-0.3-30.6,1.8-45-2.5
	c-11.4-3.4-18.3-12.3-21.5-23.8c-0.7-2.4-1-4.8-1.8-8.5c-15.1,1.3-30.2,1.7-45.1,4.1c-10,1.6-17.3,9.7-18.9,19.3
	c-2.5,14.6-2.5,29.7-3.6,45.1c23.3,0,45.5,0,68.1,0c0,22.6,0,44.7,0,67.1c-67.1,0-134.2,0-201.7,0c0-22.1,0-44.1,0-66.9
	c22.1,0,44.3,0,67,0c0-9.5-0.1-18.3,0-27.1c0.3-15.2,1.5-30.4,7.8-44.5c15.9-35.8,42.9-57.5,82.3-62.1c12.4-1.5,24.9-1,37.4-1.3
	c2.1-0.1,4.3,0,6.7,0c0.5-2.3,1-4.4,1.5-6.4c3-14.7,14.9-25.2,29.8-26.5c1.8-0.1,3.6-0.6,5.4-0.9C792.7,1,803.3,1,814,1z"/>
</svg>
