<?xml version="1.0" encoding="utf-8"?>
<!-- Generator: Adobe Illustrator 23.0.3, SVG Export Plug-In . SVG Version: 6.00 Build 0)  -->
<svg version="1.1" id="Capa_1" xmlns="http://www.w3.org/2000/svg" xmlns:xlink="http://www.w3.org/1999/xlink" x="0px" y="0px"
	 viewBox="0 0 112.2 112.2" style="enable-background:new 0 0 112.2 112.2;" xml:space="preserve">
<style type="text/css">
	.st0{fill:#FFFFFF;}
</style>
<path class="st0" d="M47.9,47.5c0-4.4-3-4.4-3-4.4H32.6v9.4h11.6C46.2,52.5,47.9,51.9,47.9,47.5z"/>
<path class="st0" d="M56.1,0C25.1,0,0,25.1,0,56.1c0,31,25.1,56.1,56.1,56.1c31,0,56.1-25.1,56.1-56.1C112.2,25.1,87.1,0,56.1,0z
	 M67.1,38.1h17.4v5.2H67.1V38.1z M58.3,65.5C58.3,78.4,44.9,78,44.9,78h-22V35.7h22c6.6,0,11.9,3.7,11.9,11.2s-6.4,8-6.4,8
	C58.9,54.9,58.3,65.4,58.3,65.5z M91,64.8H69.1c0,7.8,7.4,7.3,7.4,7.3c7,0,6.8-4.5,6.8-4.5h7.4c0,12-14.5,11.2-14.5,11.2
	C58.9,78.8,60,62.6,60,62.6c0-0.1,0-16.3,16.2-16.3C93.3,46.3,90.9,64.7,91,64.8z"/>
<path class="st0" d="M44.9,59H32.6v11.3h11.7c1.7,0,5-0.5,5-5.5C49.4,59,44.9,59,44.9,59z"/>
<path class="st0" d="M76.3,52.5c-6.5,0-7.4,6.5-7.4,6.5h13.8C82.7,59,82.8,52.5,76.3,52.5z"/>
</svg>
